# xmcd
#
# Track frame offsets:
#	150
#	11222
#	22947
#	35445
#	47727
#	60830
#	73120
#	83932
#	97042
#	107552
#	118190
#	130157
#	141307
#	153632
#
# Disc length: 2182 seconds
#
# Revision: 1
# Processed by: cddbd v1.5PL3 Copyright (c) Steve Scherf et al.
# Submitted via: audiograbber 1.80
#
DISCID=be08840e
DTITLE=Jackson do Pandeiro - Casaca de Couro
DYEAR=1900
DGENRE=
TTITLE0=Tem mulher tô lá
TTITLE1=Casaca de couro
TTITLE2=Cantiga do Sapo
TTITLE3=Mané Gardino
TTITLE4=Forró de Surumin
TTITLE5=Penerou Gavião
TTITLE6=Amor de Mentirinha
TTITLE7=Chu Chu Beleza
TTITLE8=Xarope de Amendoim
TTITLE9=Forró em Campina
TTITLE10=Morena Bela
TTITLE11=Tum - Tum - Tum
TTITLE12=Sina de Cigarra
TTITLE13=Pássaro Bacurau
EXTD=
EXTT0=
EXTT1=
EXTT2=
EXTT3=
EXTT4=
EXTT5=
EXTT6=
EXTT7=
EXTT8=
EXTT9=
EXTT10=
EXTT11=
EXTT12=
EXTT13=
PLAYORDER=
